<svg width="11" height="22" viewBox="0 0 11 22" fill="none" xmlns="http://www.w3.org/2000/svg">
<path d="M10.5858 0.449926L7.94737 0.445557C4.98322 0.445557 3.06766 2.47405 3.06766 5.61369V7.99654H0.414863C0.18563 7.99654 0 8.18835 0 8.42496V11.8774C0 12.114 0.185842 12.3056 0.414863 12.3056H3.06766V21.0174C3.06766 21.254 3.25329 21.4456 3.48252 21.4456H6.94366C7.17289 21.4456 7.35852 21.2537 7.35852 21.0174V12.3056H10.4603C10.6895 12.3056 10.8751 12.114 10.8751 11.8774L10.8764 8.42496C10.8764 8.31135 10.8326 8.20256 10.7549 8.12216C10.6772 8.04176 10.5714 7.99654 10.4613 7.99654H7.35852V5.97656C7.35852 5.00568 7.58267 4.51281 8.808 4.51281L10.5853 4.51216C10.8144 4.51216 11 4.32034 11 4.08396V0.878127C11 0.641961 10.8146 0.450363 10.5858 0.449926Z" fill="#3A5898"/>
</svg>
