<svg width="20" height="21" viewBox="0 0 20 21" fill="none" xmlns="http://www.w3.org/2000/svg">
<path d="M14.5862 0.445557H5.41381C2.42858 0.445557 0 2.87414 0 5.85936V15.0319C0 18.0169 2.42858 20.4455 5.41381 20.4455H14.5863C17.5714 20.4455 20 18.0169 20 15.0319V5.85936C20 2.87414 17.5714 0.445557 14.5862 0.445557V0.445557ZM9.99998 15.9141C6.98455 15.9141 4.53139 13.461 4.53139 10.4455C4.53139 7.4301 6.98455 4.97695 9.99998 4.97695C13.0154 4.97695 15.4686 7.4301 15.4686 10.4455C15.4686 13.461 13.0154 15.9141 9.99998 15.9141ZM15.5993 6.26662C14.7082 6.26662 13.9834 5.54183 13.9834 4.65072C13.9834 3.75961 14.7082 3.03466 15.5993 3.03466C16.4904 3.03466 17.2154 3.75961 17.2154 4.65072C17.2154 5.54183 16.4904 6.26662 15.5993 6.26662Z" fill="#999999"/>
</svg>
