<svg width="14" height="24" viewBox="0 0 14 24" fill="none" xmlns="http://www.w3.org/2000/svg">
<path d="M7.00009 3.92455C8.42431 3.92455 9.58277 5.02694 9.58277 6.38222C9.58277 7.73647 8.42377 8.83885 7.00009 8.83885C5.57695 8.83885 4.41795 7.73647 4.41795 6.38222C4.41741 5.02642 5.57695 3.92455 7.00009 3.92455ZM7.00009 12.3158C10.4404 12.3158 13.2377 9.65448 13.2377 6.38222C13.2377 3.1079 10.4404 0.445557 7.00009 0.445557C3.56029 0.445557 0.761986 3.10841 0.761986 6.38222C0.761986 9.65397 3.56029 12.3158 7.00009 12.3158ZM9.52347 17.1573C10.8065 16.8792 12.0312 16.3965 13.1455 15.7302C13.9999 15.2187 14.2565 14.1451 13.719 13.3325C13.1827 12.5194 12.0555 12.2742 11.2011 12.7847C11.2005 12.7852 11.1994 12.7857 11.1989 12.7857C8.64317 14.3143 5.35431 14.3133 2.80074 12.7857C1.9474 12.2742 0.820205 12.5179 0.282753 13.3299C0.282214 13.331 0.281675 13.3315 0.281136 13.3325C-0.256315 14.1451 -0.000257716 15.2187 0.853627 15.7302C1.96788 16.3965 3.19211 16.8787 4.47509 17.1573L0.987855 20.4762C0.274128 21.1554 0.274667 22.2567 0.988394 22.9359C1.70212 23.6151 2.8595 23.6146 3.57323 22.9354L6.99901 19.6749L10.4269 22.9359C11.1391 23.6146 12.2943 23.6156 13.0075 22.938C13.008 22.9375 13.0085 22.9369 13.0096 22.9359C13.7234 22.2588 13.725 21.16 13.0134 20.4808C13.0123 20.4798 13.0107 20.4783 13.0096 20.4772L9.52347 17.1573Z" fill="#999999"/>
</svg>
