<svg width="28" height="17" viewBox="0 0 28 17" fill="none" xmlns="http://www.w3.org/2000/svg">
<path d="M0.493348 1.50199C1.75815 1.50199 4.45853 1.50199 5.37111 1.50199C5.55789 1.50199 5.72867 1.61466 5.80872 1.78635C6.92943 4.23831 8.29563 6.45419 9.93933 8.40717C10.0781 8.63788 10.425 8.61105 10.5264 8.36425C11.0387 7.10876 11.9886 4.05052 10.1528 1.87756C9.98736 1.68441 10.0567 1.37858 10.2862 1.28201C12.1434 0.504035 13.9632 0.391362 15.735 1.18543C16.1086 1.35176 16.3487 1.72197 16.3487 2.1351L16.765 8.434C16.765 8.71299 17.0212 8.93834 17.2933 8.87932C19.332 8.44473 20.5327 5.37039 21.7228 2.16192C21.8669 1.76489 22.2405 1.50199 22.6621 1.50199H27.1556C27.5238 1.50199 27.8173 1.82927 27.7533 2.19411C27.3317 4.46902 25.0529 7.41995 23.8628 8.84176C23.4519 9.33001 23.4466 10.049 23.8575 10.5426L27.876 15.3553C28.1642 15.6987 27.9187 16.2298 27.4704 16.2298H22.3846C21.9683 16.2298 21.568 16.0528 21.2852 15.7469L17.7309 12.7692C17.5442 12.5653 17.1973 12.4956 17.0212 12.7048C16.5782 13.2413 16.6156 13.9066 16.4074 15.4143C16.3434 15.8864 15.9218 16.2245 15.4468 16.2245H11.9673C11.471 16.2245 10.9853 16.1225 10.537 15.9079C8.54111 14.9582 3.09233 11.5888 0.0237167 2.15119C-0.0776809 1.83464 0.162472 1.50199 0.493348 1.50199Z" fill="#999999"/>
</svg>
