<svg width="70" height="114" viewBox="0 0 70 114" fill="none" xmlns="http://www.w3.org/2000/svg">
<path d="M0 98H70V25.2L44.8 0H0V98Z" fill="#02519D"/>
<path d="M44.8 25.2H70L44.8 0V25.2Z" fill="#95C11F"/>
<path d="M11.377 14.709H12.0742C12.7259 14.709 13.2135 14.5814 13.5371 14.3262C13.8607 14.0664 14.0225 13.6904 14.0225 13.1982C14.0225 12.7015 13.8857 12.3346 13.6123 12.0977C13.3434 11.8607 12.9196 11.7422 12.3408 11.7422H11.377V14.709ZM16.1621 13.123C16.1621 14.1986 15.8249 15.0212 15.1504 15.5908C14.4805 16.1605 13.5257 16.4453 12.2861 16.4453H11.377V20H9.25781V10.0059H12.4502C13.6624 10.0059 14.583 10.2679 15.2119 10.792C15.8454 11.3115 16.1621 12.0885 16.1621 13.123ZM25.9208 14.9072C25.9208 16.5524 25.4514 17.8125 24.5126 18.6875C23.5784 19.5625 22.2271 20 20.4589 20H17.6288V10.0059H20.7665C22.398 10.0059 23.665 10.4365 24.5673 11.2979C25.4696 12.1592 25.9208 13.3623 25.9208 14.9072ZM23.7196 14.9619C23.7196 12.8154 22.7717 11.7422 20.8759 11.7422H19.748V18.25H20.6571C22.6988 18.25 23.7196 17.154 23.7196 14.9619ZM29.6571 20H27.5721V10.0059H33.3006V11.7422H29.6571V14.3193H33.0477V16.0488H29.6571V20Z" fill="#95C11F"/>
<path d="M54.6003 68.4L35.0003 88L15.4003 68.4" stroke="white"/>
</svg>
