<svg width="14" height="15" viewBox="0 0 14 15" fill="none" xmlns="http://www.w3.org/2000/svg">
<path d="M13.6861 11.5186L11.5241 9.35142C11.0934 8.92153 10.3803 8.93459 9.93461 9.38141L8.84534 10.4729C8.77653 10.4349 8.70529 10.3952 8.6304 10.3531C7.94254 9.97105 7.00109 9.44748 6.0104 8.45382C5.01678 7.45807 4.49391 6.51304 4.11161 5.82317C4.07127 5.75009 4.03262 5.67962 3.99445 5.6127L4.7255 4.88108L5.08492 4.52041C5.53125 4.07294 5.54356 3.35837 5.11392 2.92723L2.95184 0.759764C2.52219 0.32923 1.80871 0.342291 1.36238 0.789756L0.753032 1.40399L0.769684 1.42056C0.565361 1.68186 0.394623 1.98324 0.267564 2.30823C0.150441 2.61759 0.0775199 2.9128 0.0441767 3.20861C-0.241312 5.58074 0.840231 7.74868 3.7754 10.6905C7.8327 14.7568 11.1023 14.4496 11.2434 14.4346C11.5506 14.3978 11.845 14.3242 12.1442 14.2077C12.4657 14.0819 12.7662 13.911 13.0267 13.7067L13.04 13.7185L13.6573 13.1127C14.1028 12.6653 14.1156 11.9505 13.6861 11.5186Z" fill="#252530"/>
</svg>
